<svg xmlns="http://www.w3.org/2000/svg" xmlns:xlink="http://www.w3.org/1999/xlink" width="24" height="24" viewBox="0 0 24 24">
    <defs>
        <path id="a" d="M.738.52H2.25v19.73H.738z"/>
        <path id="c" d="M0 0h12.222v10H0z"/>
        <path id="e" d="M0 0h7v8H0z"/>
    </defs>
    <g fill="none" fill-rule="evenodd">
        <path fill="#E86C60" d="M15.697 2.262a.31.31 0 0 1 .303.316v7.586a.31.31 0 0 1-.303.316L6.384 7.032c-.512-.278-.512-1.043 0-1.32l9.313-3.45z"/>
        <g transform="translate(15 .48)">
            <mask id="b" fill="#fff">
                <use xlink:href="#a"/>
            </mask>
            <path fill="#8C2C28" d="M1.494.52a.757.757 0 0 0-.756.756v18.218a.756.756 0 0 0 1.512 0V1.276a.757.757 0 0 0-.756-.757" mask="url(#b)"/>
        </g>
        <g transform="translate(9 14)">
            <mask id="d" fill="#fff">
                <use xlink:href="#c"/>
            </mask>
            <path fill="#FFD764" d="M11.111 1.852H9.26v-.519A1.337 1.337 0 0 0 7.925 0H6.852a2.593 2.593 0 0 0-1.83.75L3.1 2.304c-.357.29-.663.637-.905 1.028H.37a.37.37 0 0 0-.37.371V8.89c0 .204.166.37.37.37h2.41A2.82 2.82 0 0 0 4.681 10H9.63a1.107 1.107 0 0 0 .815-1.86 1.108 1.108 0 0 0-.074-2.214 1.106 1.106 0 0 0 .822-1.852h-.08a1.111 1.111 0 0 0 0-2.222" mask="url(#d)"/>
        </g>
        <path fill="#E2AC4B" d="M17.94 15.13h-2.57a.37.37 0 1 0 0 .74h2.592v-.518a1.266 1.266 0 0 0-.022-.222"/>
        <g transform="translate(3 16)">
            <mask id="f" fill="#fff">
                <use xlink:href="#e"/>
            </mask>
            <path fill="#535C69" d="M6.004 8H0V0h6.004C6.554 0 7 .446 7 .996v6.008c0 .55-.446.996-.996.996" mask="url(#f)"/>
        </g>
    </g>
</svg>
