<svg xmlns="http://www.w3.org/2000/svg" xmlns:xlink="http://www.w3.org/1999/xlink" width="24" height="24" viewBox="0 0 24 24">
    <defs>
        <path id="a" d="M3 0h18.615v23.415H3z"/>
    </defs>
    <g fill="none" fill-rule="evenodd">
        <mask id="b" fill="#fff">
            <use xlink:href="#a"/>
        </mask>
        <path fill="#848C94" d="M12.472 5.36l-4.54-1.767 4.54-1.766V5.36zm6.898 14.244c-.5-.257-1.307-.67-1.563-.896.004-.536.042-.915.51-1.342.727-.663 1.633-1.488 1.633-3.065v-.65c0-1.343-.84-3.88-4.018-3.88-.948 0-1.666.227-2.21.55V0l-9.24 3.593 7.99 3.107v2.803c-.68-.707-1.704-1.226-3.208-1.226-3.485 0-4.406 2.782-4.406 4.253v.726c0 1.727.954 2.597 1.796 3.364.55.504.589.967.59 1.58-.264.252-1.204.734-1.782 1.031C3.799 20.084 3 20.525 3 21.238v2.177h1.25v-2.042c.265-.252 1.204-.734 1.783-1.03 1.663-.853 2.462-1.295 2.462-2.008 0-.769 0-1.727-1-2.639-.775-.707-1.387-1.265-1.387-2.44v-.726c0-.307.089-3.003 3.156-3.003s3.156 2.696 3.156 3.003v.726c0 1.176-.612 1.734-1.388 2.44-1 .912-1 1.87-1 2.64 0 .712.799 1.154 2.463 2.007.578.296 1.518.778 1.783 1.03v2.042h1.25v-2.177c0-.713-.8-1.154-2.462-2.007-.578-.297-1.52-.779-1.784-1.03.003-.614.04-1.077.59-1.58.843-.767 1.798-1.637 1.798-3.365v-.726a4.28 4.28 0 0 0-.027-.436c.467-.71 1.235-1.074 2.289-1.074 2.689 0 2.768 2.361 2.768 2.63v.651c0 1.025-.541 1.518-1.225 2.142-.918.837-.918 1.712-.918 2.415 0 .677.728 1.081 2.243 1.858.5.256 1.31.671 1.566.896v1.803h1.25v-1.953c0-.678-.73-1.08-2.246-1.858z" mask="url(#b)"/>
    </g>
</svg>
