<svg xmlns="http://www.w3.org/2000/svg" xmlns:xlink="http://www.w3.org/1999/xlink" width="24" height="24" viewBox="0 0 24 24">
    <defs>
        <path id="a" d="M1 0H22.15v23.148H1z"/>
    </defs>
    <g fill="none" fill-rule="evenodd">
        <mask id="b" fill="#fff">
            <use xlink:href="#a"/>
        </mask>
        <path fill="#848C94" d="M20.9 19.925c0 .743-.923 1.973-1.974 1.973h-3.26c-.263 0-.755-.419-1.116-.725-.53-.452-1.032-.878-1.604-.878H11.78v-4.52h1.18l3.127-2.409h2.55l.004.208-2.283 1.958h3.287c.775 0 1.254.651 1.254 1.254v3.14zM16.825 7.76L9.2 4.793l7.627-2.966V7.76zm2.91 6.524l.17-.145-.047-2.022h-1.782V0L5.751 4.793l11.076 4.308v3.015h-1.165l-3.128 2.408h-.754v-1.438H1v1.25h9.53V21.8H1v1.25h10.78v-1.505h1.154c.153.025.563.372.807.58.563.48 1.203 1.023 1.925 1.023h3.26c1.736 0 3.223-1.772 3.223-3.223v-3.139a2.508 2.508 0 0 0-2.414-2.503z" mask="url(#b)"/>
    </g>
</svg>
