<svg xmlns="http://www.w3.org/2000/svg" xmlns:xlink="http://www.w3.org/1999/xlink" width="24" height="24" viewBox="0 0 24 24">
    <defs>
        <path id="a" d="M0 .959h22.124V12H0z"/>
        <path id="c" d="M0 .478h22.124v11.04H0z"/>
    </defs>
    <g fill="none" fill-rule="evenodd">
        <g transform="translate(1 9.523)">
            <mask id="b" fill="#fff">
                <use xlink:href="#a"/>
            </mask>
            <path fill="#848C94" d="M17.895 10.75V7.611c.966.241 2.666.968 2.94 3.139h-2.94zM1.25 7.243c1.225.14 3.285.785 3.56 3.507H1.25V7.243zm.83-2.851h6.788l1.608-1.759 1.48 1.092-1.393 1.857 1 .75 1.398-1.865 1.4 1.033-1.31 1.747 1 .75 1.316-1.754 1.278.943v3.564H6.064C5.795 7.532 3.469 6.194 1.25 5.987V3.648l.83.744zM17.5 6.263L10.315.959 8.318 3.142h-5.76L1.3 2.014H0V12h22.125v-.625c0-3.671-2.922-4.928-4.625-5.112z" mask="url(#b)"/>
        </g>
        <g transform="translate(1 2.522)">
            <mask id="d" fill="#fff">
                <use xlink:href="#c"/>
            </mask>
            <path fill="#848C94" d="M17.895 10.268V7.125c.966.236 2.668.956 2.94 3.143h-2.94zM17.5 5.78L10.315.478 8.318 2.66h-5.76L1.3 1.53H0v6.18h1.25v-.946c.987.115 2.593.564 3.272 2.262l1.16-.464c-.81-2.028-2.72-2.89-4.433-3.056v-2.34l.83.744h6.79l1.607-1.76 1.48 1.093L10.563 5.1l1 .75 1.398-1.864 1.4 1.032-1.31 1.748 1 .75 1.316-1.755 1.278.943v3.564h-.52v1.25h6v-.625c0-3.67-2.922-4.928-4.625-5.112z" mask="url(#d)"/>
        </g>
    </g>
</svg>
