<svg xmlns="http://www.w3.org/2000/svg" width="24" height="24" viewBox="0 0 24 24">
    <g fill="none" fill-rule="evenodd" transform="translate(0 1)">
        <path fill="#444" d="M21 3h-5L14.777.559a1 1 0 0 0-.894-.552H9.117a1 1 0 0 0-.894.552L7 3H2a2 2 0 0 0-2 2v14a2 2 0 0 0 2 2h19a2 2 0 0 0 2-2V5a2 2 0 0 0-2-2z"/>
        <path fill="#666" d="M3 19H0V5h3a1 1 0 0 1 1 1v12a1 1 0 0 1-1 1z"/>
        <circle cx="11.5" cy="12" r="5.5" fill="#666"/>
        <path fill="#E6E6E6" fill-rule="nonzero" d="M11.5 18c-3.309 0-6-2.692-6-6s2.691-6 6-6 6 2.692 6 6-2.691 6-6 6zm0-11c-2.757 0-5 2.243-5 5s2.243 5 5 5 5-2.243 5-5-2.243-5-5-5z"/>
        <circle cx="11.5" cy="12" r="3" fill="#444"/>
        <path fill="#76B5B5" d="M13 4h-3a.5.5 0 0 1-.5-.5V2a.5.5 0 0 1 .5-.5h3a.5.5 0 0 1 .5.5v1.5a.5.5 0 0 1-.5.5z"/>
        <path fill="#FFF" d="M21 6h-3a.5.5 0 0 1-.5-.5V5a.5.5 0 0 1 .5-.5h3a.5.5 0 0 1 .5.5v.5a.5.5 0 0 1-.5.5z"/>
    </g>
</svg>
