<svg xmlns="http://www.w3.org/2000/svg" width="28" height="28" viewBox="0 0 28 28">
    <g fill="none" fill-rule="nonzero">
        <path fill="none" d="M0 0h28v28H0z"/>
        <g stroke="#495056" stroke-width="1.5">
            <path d="M3.25 13.25v5.25c0 2.9 2.35 5.25 5.25 5.25h11c2.9 0 5.25-2.35 5.25-5.25v-5.25H3.25zM7.438 23.188l-.875 2.843M20.563 23.188l.875 2.843M1 13.25h26"/>
            <g stroke-linecap="square">
                <path d="M8.915 2.503c-.803 1.192-.803 2.301 0 3.325 1.206 1.537.665 2.417-.075 3.342M13.947 2.503c-.804 1.192-.804 2.301 0 3.325 1.205 1.537.664 2.417-.076 3.342M18.978 2.503c-.804 1.192-.804 2.301 0 3.325 1.206 1.537.665 2.417-.075 3.342"/>
            </g>
        </g>
    </g>
</svg>
