<svg xmlns="http://www.w3.org/2000/svg" width="24" height="24" viewBox="0 0 24 24">
    <g fill="none" fill-rule="evenodd">
        <path fill="#B3B3B3" d="M8.5 8.75a.748.748 0 0 1-.728-.567l-1-4a.747.747 0 0 1 .73-.932c.344 0 .643.233.725.568l1 4a.747.747 0 0 1-.728.932"/>
        <path fill="#B3B3B3" d="M7.502 3a.99.99 0 0 0-.86.487.985.985 0 0 0-.112.757l1 4a.996.996 0 0 0 1.213.726.985.985 0 0 0 .614-.456.985.985 0 0 0 .112-.757l-1-3.999A.996.996 0 0 0 7.502 3m0 .5c.223 0 .426.152.482.38l1 4a.498.498 0 0 1-.485.62.498.498 0 0 1-.484-.378l-1-4a.498.498 0 0 1 .487-.622"/>
        <path fill="#5B5B5B" d="M19 9.5c-2.757 0-5 2.244-5 5 0 2.758 2.243 5 5 5s5-2.242 5-5c0-2.756-2.243-5-5-5m0 2c1.654 0 3 1.347 3 3 0 1.655-1.346 3-3 3s-3-1.345-3-3c0-1.653 1.346-3 3-3M5 9.5c-2.757 0-5 2.244-5 5 0 2.758 2.243 5 5 5s5-2.242 5-5c0-2.756-2.243-5-5-5m0 2c1.654 0 3 1.347 3 3 0 1.655-1.346 3-3 3s-3-1.345-3-3c0-1.653 1.346-3 3-3M6 4.75a.75.75 0 0 1 0-1.5h3.5a.75.75 0 0 1 0 1.5H6z"/>
        <path fill="#5B5B5B" d="M9.5 3H6c-.551 0-1 .45-1 1 0 .552.449 1 1 1h3.5c.551 0 1-.448 1-1 0-.55-.449-1-1-1m0 .5a.5.5 0 0 1 0 1H6a.5.5 0 0 1 0-1h3.5"/>
        <path fill="#43A6DD" d="M19 15.25a.754.754 0 0 1-.721-.543l-3-10.5a.752.752 0 0 1 .717-.955c.335 0 .633.223.725.543l3 10.5a.752.752 0 0 1-.721.956"/>
        <path fill="#43A6DD" d="M15.997 3.002a1.003 1.003 0 0 0-.958 1.273l3 10.5a1.004 1.004 0 0 0 1.232.689c.534-.153.842-.708.69-1.237l-3-10.5a1.006 1.006 0 0 0-.964-.725m0 .5c.218 0 .42.14.484.362l3 10.5a.5.5 0 1 1-.962.274l-3-10.5a.502.502 0 0 1 .478-.636"/>
        <path fill="#43A6DD" d="M10.62 13.75l4.246-5.79-5.889.737-2.722 5.054h4.365zM5 15.25a.753.753 0 0 1-.66-1.104l3.5-6.5a.754.754 0 0 1 .567-.39l8.021-1c.35 0 .585.138.718.365a.75.75 0 0 1-.04.824l-5.5 7.5a.753.753 0 0 1-.606.306H5z"/>
        <path fill="#43A6DD" d="M9.136 8.93l5.186-.649-3.83 5.22H6.675l2.462-4.572zM16.5 6a.983.983 0 0 0-.121.008l-8.003 1c-.32.04-.602.234-.756.518l-3.501 6.501A1.002 1.002 0 0 0 5 15.5h6c.318 0 .619-.153.807-.408l5.5-7.5A1 1 0 0 0 16.5 6zm-1.09 1.64l-6.592.825L5.837 14h4.91l4.664-6.36zM16.5 6.5a.5.5 0 0 1 .404.796l-5.5 7.5A.501.501 0 0 1 11 15H5a.499.499 0 0 1-.44-.737l3.5-6.5a.502.502 0 0 1 .378-.259l8-1c.02-.002.04-.004.062-.004z"/>
        <path fill="#B3B3B3" d="M19.5 7.75a.75.75 0 0 1 0-1.5.75.75 0 0 0 0-1.5H16a.75.75 0 0 1 0-1.5h3.5a2.252 2.252 0 0 1 2.25 2.25 2.252 2.252 0 0 1-2.25 2.25"/>
        <path fill="#B3B3B3" d="M19.5 3H16c-.551 0-1 .45-1 1 0 .552.449 1 1 1h3.5a.5.5 0 0 1 0 1c-.551 0-1 .45-1 1 0 .552.449 1 1 1C20.878 8 22 6.88 22 5.5 22 4.124 20.878 3 19.5 3m0 .5c1.103 0 2 .898 2 2 0 1.104-.897 2-2 2a.5.5 0 0 1 0-1c.551 0 1-.448 1-1 0-.55-.449-1-1-1H16a.5.5 0 0 1 0-1h3.5"/>
        <path fill="#5B5B5B" d="M19.5 7.75a.75.75 0 0 1 0-1.5.75.75 0 0 0 0-1.5.75.75 0 0 1 0-1.5 2.252 2.252 0 0 1 2.25 2.25 2.252 2.252 0 0 1-2.25 2.25"/>
        <path fill="#5B5B5B" d="M19.5 3c-.551 0-1 .45-1 1 0 .552.449 1 1 1a.5.5 0 0 1 0 1c-.551 0-1 .45-1 1 0 .552.449 1 1 1C20.878 8 22 6.88 22 5.5 22 4.124 20.878 3 19.5 3m0 .5c1.103 0 2 .898 2 2 0 1.104-.897 2-2 2a.5.5 0 0 1 0-1c.551 0 1-.448 1-1 0-.55-.449-1-1-1a.5.5 0 0 1 0-1"/>
    </g>
</svg>
