<svg xmlns="http://www.w3.org/2000/svg" width="24" height="24" viewBox="0 0 24 24">
    <g fill="none" fill-rule="evenodd">
        <path fill="#5B5B5B" d="M23 15H0v-4.5l.021-.144 1.286-5.287A1.502 1.502 0 0 1 2.744 4H17c.163 0 .316.08.41.213L21 10h.5a1.5 1.5 0 0 1 1.5 1.5V15z"/>
        <path fill="#E6E6E6" d="M2.172 10L3 6h13.3l2.24 4z"/>
        <path fill="#5B5B5B" d="M7.5 10H9V6H7.5z"/>
        <path fill="#3A3A3A" d="M23 15H0a2 2 0 0 0 2 2h20a1 1 0 0 0 1-1v-1z"/>
        <path fill="#444" d="M4.5 20c-1.654 0-3-1.346-3-3s1.346-3 3-3 3 1.346 3 3-1.346 3-3 3M19 20c-1.654 0-3-1.346-3-3s1.346-3 3-3 3 1.346 3 3-1.346 3-3 3"/>
        <path fill="#E6E6E6" d="M4.5 18.5c-.827 0-1.5-.673-1.5-1.5s.673-1.5 1.5-1.5S6 16.173 6 17s-.673 1.5-1.5 1.5M19 18.5c-.827 0-1.5-.673-1.5-1.5s.673-1.5 1.5-1.5 1.5.673 1.5 1.5-.673 1.5-1.5 1.5"/>
        <path fill="#EA9860" d="M22.5 13.5h.5v-2h-.5a.5.5 0 0 0-.5.5v1a.5.5 0 0 0 .5.5"/>
    </g>
</svg>
