<svg xmlns="http://www.w3.org/2000/svg" width="24" height="24" viewBox="0 0 24 24">
    <g fill="none" fill-rule="evenodd">
        <path fill="#FFF" fill-rule="nonzero" d="M2 2h19v19H2z"/>
        <path fill="#ADB5BD" fill-rule="nonzero" d="M22.5 23H.5a.5.5 0 0 1-.5-.5V.5A.5.5 0 0 1 .5 0h22a.5.5 0 0 1 .5.5v22a.5.5 0 0 1-.5.5zM2 21h19V2H2v19z"/>
        <path fill="#72C472" d="M9.583 5H5.417A.417.417 0 0 0 5 5.417v4.166c0 .23.186.417.417.417h4.166c.23 0 .417-.187.417-.417V5.417A.417.417 0 0 0 9.583 5zM17.583 5h-4.166a.417.417 0 0 0-.417.417v4.166c0 .23.186.417.417.417h4.166c.23 0 .417-.187.417-.417V5.417A.417.417 0 0 0 17.583 5zM9.583 13H5.417a.417.417 0 0 0-.417.417v4.166c0 .23.186.417.417.417h4.166c.23 0 .417-.187.417-.417v-4.166A.417.417 0 0 0 9.583 13zM17.583 13h-4.166a.417.417 0 0 0-.417.417v4.166c0 .23.186.417.417.417h4.166c.23 0 .417-.187.417-.417v-4.166a.417.417 0 0 0-.417-.417z"/>
    </g>
</svg>
