<svg xmlns="http://www.w3.org/2000/svg" width="24" height="24" viewBox="0 0 24 24">
    <g fill="none" fill-rule="evenodd">
        <path fill="#5B5B5B" d="M5.5 3a.5.5 0 0 0-.5.5v7a.5.5 0 0 0 .5.5h4a.5.5 0 0 0 .5-.5v-7a.5.5 0 0 0-.5-.5h-4z"/>
        <path fill="#D4D1E0" d="M3.567 14C3.254 14 3 13.731 3 13.4V8.6c0-.331.254-.6.567-.6h13.6c.214 0 .411.128.506.331l2.267 4.8a.63.63 0 0 1-.025.585.561.561 0 0 1-.482.284H3.567z"/>
        <path fill="#64588C" d="M2.857 22c-.246 0-.464-.177-.542-.44L.03 13.846a.704.704 0 0 1 .078-.579A.55.55 0 0 1 .571 13h22.857c.198 0 .382.116.486.305a.71.71 0 0 1 .025.626l-3.428 7.714A.568.568 0 0 1 20 22H2.857z"/>
        <path fill="#FFF" d="M6 16a1 1 0 1 1 0 2 1 1 0 0 1 0-2M10 16a1 1 0 1 1 0 2 1 1 0 0 1 0-2M14 16a1 1 0 1 1 0 2 1 1 0 0 1 0-2M18 16a1 1 0 1 1 0 2 1 1 0 0 1 0-2"/>
        <path fill="#E86C60" d="M5 6h5V5H5z"/>
    </g>
</svg>
