<svg xmlns="http://www.w3.org/2000/svg" width="24" height="24" viewBox="0 0 24 24">
    <g fill="#848C94" fill-rule="evenodd">
        <path d="M5.992 10.612h11.673v-1.25H5.992z"/>
        <path d="M19.244 20.89h2.237v-2.044h-2.237v2.044zm-17.069 0h2.237v-2.044H2.175v2.044zm0-8.184c1.741.053 3.376.368 3.754 1.694H2.175v-1.694zm.733-1.9c.631-.342 1.495-.812 1.495-1.884V5.628c0-1.177 1.249-2.378 2.475-2.378h9.901c1.226 0 2.475 1.2 2.475 2.378v3.294c0 1.07.863 1.542 1.494 1.885.456.249.733.414.733.605v.04c-1.767.047-5.085.43-5.085 3.573v.625h5.085v1.946H2.175V15.65h5.086v-.625c0-3.143-3.319-3.527-5.086-3.573v-.04c0-.191.277-.356.733-.605zM21.481 14.4h-3.752c.377-1.326 2.011-1.641 3.752-1.694V14.4zm-.135-4.69l-.036-.021c.372-.53 1.69-.722 2.347-.723l-.001-1.25c-.965 0-2.382.247-3.152 1.005V5.628C20.504 3.764 18.693 2 16.779 2H6.878C4.964 2 3.153 3.764 3.153 5.628v3.094C2.383 7.962.965 7.716 0 7.716v1.25c.422 0 1.95.138 2.353.72l-.042.024c-.585.318-1.386.755-1.386 1.702V22.14h4.737v-3.294h12.332v3.294h4.737V11.41c0-.946-.8-1.383-1.385-1.701z"/>
    </g>
</svg>
